<svg width="109" height="68" viewBox="0 0 109 68" fill="none" xmlns="http://www.w3.org/2000/svg">
<path d="M105.535 21.4172C104.724 19.2167 103.566 17.132 102.292 15.2789C101.366 13.8891 100.208 12.4993 99.0494 11.3411C98.1229 10.4146 97.1963 9.60388 96.154 8.90898C95.1116 8.21407 94.1851 7.51915 93.1427 6.94007C92.1004 6.36098 90.9422 5.89773 89.8998 5.43446C89.4366 5.20282 88.8575 5.08699 88.3942 4.97118C87.8151 4.85536 87.3518 4.73954 86.7728 4.62372C86.1937 4.5079 85.4988 4.39209 84.9197 4.39209C84.8039 4.39209 84.6881 4.39209 84.5722 4.39209C84.4564 4.39209 84.3406 4.39209 84.2248 4.39209C83.8773 4.39209 83.4141 4.39209 83.0666 4.39209C83.0666 4.39209 83.0666 4.39209 82.9508 4.39209C82.835 4.39209 82.7191 4.39209 82.6033 4.39209C80.8661 4.39209 73.917 4.62372 68.7053 9.25641C68.242 9.71968 67.7787 10.0671 67.4313 10.5304C65.9256 11.9202 64.3042 13.7733 62.7986 15.7422C58.3975 21.1856 55.1546 26.3974 55.1546 26.3974C51.7959 21.3014 47.7423 15.6264 42.6464 10.4146C42.0673 9.8355 41.604 9.37225 40.9091 8.90898C39.9826 8.09826 38.8244 7.51915 37.782 6.94007C37.6662 6.82425 37.4346 6.82425 37.3188 6.70844C36.2764 6.12935 35.1182 5.78191 33.9601 5.43446C33.0335 5.20282 31.9912 4.97118 30.9488 4.73955C30.1381 4.62373 29.4432 4.50791 28.6325 4.50791C28.1692 4.50791 27.7059 4.50791 27.3585 4.50791C27.2427 4.50791 27.1268 4.50791 27.1268 4.50791C26.3161 4.50791 25.5054 4.62373 24.6947 4.73955C23.8839 4.85536 23.0732 4.97117 22.2625 5.20281C21.4518 5.43444 20.7569 5.66608 19.9462 5.89772C19.2513 6.12935 18.4405 6.4768 17.7456 6.94007C17.0507 7.28752 16.3558 7.7508 15.6609 8.21407C14.966 8.67733 14.2711 9.14061 13.692 9.71969C12.9971 10.2988 12.418 10.762 11.839 11.3411C11.6073 11.5728 11.2599 11.9202 11.0282 12.1518C10.6808 12.6151 10.2175 12.9626 9.87006 13.4258C9.75424 13.6575 9.5226 13.7733 9.40678 14.0049C9.29097 14.1207 9.29097 14.2366 9.17515 14.3524L9.05934 14.4682L8.94352 14.584C8.71189 14.9315 8.48025 15.1631 8.24861 15.5106C7.78534 16.0896 7.43789 16.7845 6.97462 17.4795C6.51135 18.2902 6.04808 18.9851 5.70063 19.7958C5.469 20.2591 5.23736 20.6065 5.12155 21.0698V21.1856C5.00573 21.5331 4.77409 21.9963 4.65828 22.4596C4.65828 22.4596 4.65828 22.5754 4.54246 22.5754C4.42664 22.9229 4.19501 23.3861 4.07919 23.8494V23.9652C3.96337 24.4285 3.73173 25.0076 3.61592 25.5867C3.5001 25.9341 3.38429 26.3974 3.26847 26.8607C3.26847 26.8607 3.26847 26.8607 3.26847 26.9765C3.15265 27.3239 3.03683 27.7872 3.03683 28.1346C3.03683 28.2505 3.03683 28.2505 3.03683 28.3663C1.06794 37.9791 1.5312 51.5297 13.692 62.5324C14.1553 62.8798 14.6186 63.3431 15.0818 63.6906C15.5451 64.038 16.0084 64.3855 16.4716 64.6171C16.9349 64.8487 17.3982 65.1962 17.8615 65.4278C18.3247 65.6595 18.788 65.8911 19.2513 66.0069C19.7145 66.2385 20.1778 66.3544 20.6411 66.4702C21.1043 66.586 21.5676 66.7018 21.9151 66.8176C23.1891 67.1651 24.463 67.2809 25.737 67.3967C27.011 67.5125 28.285 67.3967 29.559 67.2809C30.6014 67.1651 31.6437 66.9335 32.8019 66.7018C33.2652 66.586 33.6126 66.4702 34.0759 66.3544C34.5392 66.2385 34.8866 66.1227 35.3499 66.0069C35.8131 65.8911 36.2764 65.6595 36.6239 65.5436C37.0871 65.312 37.5504 65.1962 38.0137 64.9646C38.4769 64.7329 38.9402 64.5013 39.2877 64.2696C39.7509 64.038 40.2142 63.6906 40.5617 63.4589C41.0249 63.1115 41.3724 62.764 41.8356 62.4166C41.9515 62.3008 42.1831 62.1849 42.2989 61.9533C42.4147 61.8375 42.5305 61.6059 42.7622 61.49C45.7734 58.8262 51.3327 51.0665 55.2705 45.3914C55.3863 45.5073 56.5444 47.2445 56.6603 47.4761C57.1235 48.171 57.7026 48.9818 58.1659 49.6767C58.9766 50.9507 59.9032 52.1088 60.8297 53.267C62.6828 55.6992 64.42 58.1313 66.6206 60.216C68.0104 61.7217 69.6318 62.9957 71.3691 64.1538C76.5808 67.5125 83.0666 68.3233 88.9733 66.8176C90.1315 66.4702 91.4055 66.1227 92.5636 65.5436C96.3856 63.8064 99.6285 60.9109 102.061 57.3206C107.736 49.2134 109.82 38.7898 107.967 28.8296C107.041 26.0499 106.462 23.7336 105.535 21.4172ZM36.8555 51.6456C36.6239 51.8772 36.2764 52.1088 36.0448 52.3405C35.8131 52.4563 35.5815 52.6879 35.3499 52.8037C33.381 54.1935 30.9488 54.8884 28.6325 55.0043C26.8952 55.1201 25.0421 55.0043 23.3049 54.6568C23.0732 54.6568 22.8416 54.541 22.61 54.4252C22.3783 54.3094 22.2625 54.3094 22.0309 54.1935C21.6834 54.0777 21.4518 53.9619 21.1043 53.7303C20.7569 53.6145 20.5253 53.3828 20.2936 53.267C20.062 53.0354 19.7145 52.9195 19.4829 52.6879C19.2513 52.4563 18.9038 52.3405 18.6722 52.1088C18.4405 51.8772 18.0931 51.6456 17.8615 51.4139C17.6298 51.1823 17.3982 50.9507 17.1665 50.719C16.9349 50.4874 16.7033 50.2558 16.4716 49.9083C16.24 49.6767 16.0084 49.3292 15.7767 49.0976C15.5451 48.866 15.3135 48.5185 15.1977 48.171C14.966 47.8236 14.8502 47.592 14.6186 47.2445C14.3869 46.897 14.2711 46.6654 14.0395 46.318C13.9237 45.9705 13.692 45.6231 13.5762 45.2756C13.4604 44.9282 13.2288 44.5807 13.1129 44.2333C12.9971 43.8858 12.8813 43.5383 12.7655 43.1909C12.6497 42.8434 12.5339 42.496 12.418 42.0327C12.3022 41.6853 12.1864 41.222 12.1864 40.8745C12.0706 40.5271 12.0706 40.0638 11.9548 39.7164C11.839 39.3689 11.8389 38.9057 11.7231 38.5582C11.7231 38.2108 11.6073 37.7475 11.6073 37.2842C11.6073 36.821 11.6073 36.4735 11.6073 36.0102C11.6073 35.8944 11.6073 35.6628 11.6073 35.547C11.6073 23.2703 22.7258 10.4146 35.1182 18.2902C37.0871 19.5642 38.8244 21.1856 40.2142 23.0387C43.3413 27.0923 46.3525 31.2617 49.1321 35.4311C47.7423 37.6317 46.2367 39.7164 44.8469 41.8011C43.5729 43.5384 42.2989 45.2756 41.0249 47.0129C39.5193 48.7501 38.2453 50.3716 36.8555 51.6456ZM90.1315 53.1512C87.9309 54.4252 85.7304 54.8885 84.2248 55.1201C82.7192 55.3517 81.2135 55.2359 79.7079 54.8885C78.2023 54.541 76.8125 54.0777 75.4227 53.267C74.0329 52.4563 72.8747 51.2981 71.8323 50.1399C71.0216 49.2134 70.0951 48.171 69.4002 47.2445C68.4736 46.0863 67.6629 44.9282 66.7364 43.77C65.694 42.3802 64.7675 40.9904 63.8409 39.6006C63.6093 39.2531 63.3777 39.0215 63.2618 38.674C62.6828 37.7475 62.1037 36.8209 61.4088 35.6628C64.8833 30.3352 68.4736 24.8918 72.7589 20.3749C74.3803 18.7534 76.2334 17.4795 78.4339 16.9004C81.561 15.9738 85.1513 15.858 88.2784 17.2478C90.4789 18.1744 92.332 19.68 93.8376 21.5331C97.1963 25.355 98.8178 30.6826 98.8178 35.7786C98.7019 43.3067 95.2274 49.9083 90.1315 53.1512Z" fill="#35414D"/>
<path d="M104.145 17.4792C103.334 15.2787 102.176 13.194 100.902 11.3409C99.9751 9.95112 98.8169 8.56131 97.6588 7.40314C96.7322 6.4766 95.8057 5.66587 94.7633 4.97097C93.721 4.27607 92.7944 3.58117 91.7521 3.00208C90.7097 2.42299 89.5516 1.95972 88.5092 1.49645C88.0459 1.26482 87.4668 1.14901 87.0036 1.03319C86.4245 0.917371 85.9612 0.80155 85.3821 0.685733C84.803 0.569915 84.1081 0.454102 83.5291 0.454102C83.4132 0.454102 83.2974 0.454102 83.1816 0.454102C83.0658 0.454102 82.95 0.454102 82.8342 0.454102C82.4867 0.454102 82.0234 0.454102 81.676 0.454102C81.676 0.454102 81.676 0.454102 81.5602 0.454102C81.4443 0.454102 81.3285 0.454102 81.2127 0.454102C79.4754 0.454102 72.5264 0.685733 67.3146 5.31843C66.8514 5.7817 66.3881 6.12915 66.0406 6.59242C64.535 7.98223 62.9136 9.83531 61.408 11.8042C57.0069 17.2476 53.764 22.4594 53.764 22.4594C50.4053 17.3634 46.3517 11.6884 41.2557 6.4766C40.6766 5.89751 40.2134 5.43424 39.5185 4.97097C38.5919 4.16025 37.4338 3.58117 36.3914 3.00208C36.2756 2.88626 36.044 2.88627 35.9281 2.77045C34.8858 2.19136 33.7276 1.8439 32.5694 1.49645C31.6429 1.26482 30.6005 1.03319 29.5582 0.801557C28.7475 0.68574 28.0526 0.569908 27.2418 0.569908C26.7786 0.569908 26.3153 0.569908 25.9678 0.569908C25.852 0.569908 25.7362 0.569908 25.7362 0.569908C24.9255 0.569908 24.1148 0.68574 23.304 0.801557C22.4933 0.917374 21.6826 1.03318 20.8719 1.26482C20.0612 1.49645 19.3663 1.7281 18.5555 1.95973C17.8606 2.19137 17.0499 2.53881 16.355 3.00208C15.6601 3.34953 14.9652 3.81281 14.2703 4.27608C13.5754 4.73935 12.8805 5.2026 12.3014 5.78169C11.6065 6.36077 11.0274 6.82405 10.4483 7.40314C10.2167 7.63478 9.86924 7.98222 9.6376 8.21386C9.29015 8.67713 8.82688 9.02459 8.47943 9.48786C8.36361 9.71949 8.13198 9.83531 8.01616 10.0669C7.90034 10.1828 7.90035 10.2986 7.78453 10.4144L7.6687 10.5302L7.55289 10.646C7.32125 10.9935 7.08962 11.2251 6.85799 11.5726C6.39472 12.1516 6.04727 12.8466 5.584 13.5415C5.12073 14.3522 4.65746 15.0471 4.31001 15.8578C4.07837 16.3211 3.84674 16.6685 3.73092 17.1318V17.2476C3.6151 17.5951 3.38347 18.0583 3.26765 18.5216C3.26765 18.5216 3.26765 18.6374 3.15183 18.6374C3.03602 18.9849 2.80438 19.4481 2.68856 19.9114V20.0272C2.57275 20.4905 2.34111 21.0696 2.22529 21.6487C2.10948 21.9961 1.99365 22.4594 1.87784 22.9227C1.87784 22.9227 1.87784 22.9227 1.87784 23.0385C1.76202 23.3859 1.64621 23.8492 1.64621 24.1967C1.64621 24.3125 1.64621 24.3125 1.64621 24.4283C-0.322689 34.0411 0.140577 47.5918 12.3014 58.5944C12.7647 58.9419 13.2279 59.4051 13.6912 59.7526C14.1545 60.1 14.6178 60.4475 15.081 60.6791C15.5443 60.9107 16.0076 61.2582 16.4708 61.4898C16.9341 61.7215 17.3974 61.9531 17.8606 62.0689C18.3239 62.3006 18.7872 62.4164 19.2504 62.5322C19.7137 62.648 20.177 62.7638 20.5244 62.8796C21.7984 63.2271 23.0724 63.3429 24.3464 63.4587C25.6204 63.5745 26.8944 63.4587 28.1684 63.3429C29.2107 63.2271 30.2531 62.9955 31.4113 62.7638C31.8745 62.648 32.222 62.5322 32.6853 62.4164C33.1485 62.3006 33.496 62.1847 33.9592 62.0689C34.4225 61.9531 34.8858 61.7215 35.2332 61.6057C35.6965 61.374 36.1598 61.2582 36.623 61.0266C37.0863 60.7949 37.5496 60.5633 37.897 60.3317C38.3603 60.1 38.8236 59.7526 39.171 59.5209C39.6343 59.1735 39.9817 58.826 40.445 58.4786C40.5608 58.3628 40.7925 58.2469 40.9083 58.0153C41.0241 57.8995 41.1399 57.6679 41.3716 57.5521C44.3828 54.8883 49.942 47.1285 53.8798 41.4534C53.9956 41.5692 55.1538 43.3065 55.2696 43.5381C55.7329 44.2331 56.312 45.0438 56.7753 45.7387C57.586 47.0127 58.5125 48.1708 59.439 49.329C61.2921 51.7612 63.0294 54.1933 65.2299 56.2781C66.6197 57.7837 68.2412 59.0577 69.9784 60.2158C75.1902 63.5745 81.676 64.3853 87.5827 62.8796C88.7408 62.5322 90.0148 62.1847 91.173 61.6057C94.995 59.8684 98.2379 56.973 100.67 53.3826C106.345 45.2754 108.43 34.8518 106.577 24.8915C105.65 22.1119 104.955 19.7956 104.145 17.4792ZM35.4649 47.7076C35.2332 47.9392 34.8858 48.1708 34.6541 48.4025C34.4225 48.5183 34.1909 48.7499 33.9592 48.8657C31.9903 50.2556 29.5582 50.9505 27.2418 51.0663C25.5046 51.1821 23.6515 51.0663 21.9142 50.7188C21.6826 50.7188 21.451 50.603 21.2193 50.4872C20.9877 50.3714 20.8719 50.3714 20.6402 50.2556C20.2928 50.1397 20.0612 50.0239 19.7137 49.7923C19.3663 49.6765 19.1346 49.4448 18.903 49.329C18.6713 49.0974 18.3239 48.9816 18.0923 48.7499C17.8606 48.5183 17.5132 48.4025 17.2815 48.1708C17.0499 47.9392 16.7025 47.7076 16.4708 47.4759C16.2392 47.2443 16.0076 47.0127 15.7759 46.781C15.5443 46.5494 15.3127 46.3178 15.081 45.9703C14.8494 45.7387 14.6177 45.3912 14.3861 45.1596C14.1545 44.9279 13.9228 44.5805 13.807 44.2331C13.5754 43.8856 13.4596 43.654 13.2279 43.3065C12.9963 42.9591 12.8805 42.7274 12.6489 42.38C12.533 42.0325 12.3014 41.6851 12.1856 41.3376C12.0698 40.9902 11.8381 40.6427 11.7223 40.2953C11.6065 39.9478 11.4907 39.6004 11.3749 39.2529C11.259 38.9055 11.1432 38.558 11.0274 38.0947C10.9116 37.7473 10.7958 37.284 10.7958 36.9366C10.68 36.5891 10.68 36.1258 10.5641 35.7784C10.4483 35.4309 10.4483 34.9677 10.3325 34.6202C10.3325 34.2728 10.2167 33.8095 10.2167 33.3462C10.2167 32.8829 10.2167 32.5355 10.2167 32.0722C10.2167 31.9564 10.2167 31.7248 10.2167 31.609C10.2167 19.3323 21.3351 6.4766 33.7276 14.3522C35.6965 15.6262 37.4338 17.2476 38.8236 19.1007C41.9506 23.1543 44.9619 27.3237 47.7415 31.4932C46.3517 33.6937 44.8461 35.7784 43.4563 37.8631C42.1823 39.6004 40.9083 41.3376 39.6343 43.0749C38.1287 44.928 36.8547 46.4336 35.4649 47.7076ZM88.7408 49.2132C86.5403 50.4872 84.3398 50.9505 82.8342 51.1821C81.3285 51.4137 79.8229 51.2979 78.3173 50.9504C76.8116 50.603 75.4218 50.1397 74.032 49.329C72.6422 48.5183 71.484 47.3601 70.4417 46.2019C69.631 45.2754 68.7044 44.2331 68.0095 43.3065C67.083 42.1483 66.2723 40.9902 65.3457 39.832C64.3034 38.4422 63.3768 37.0524 62.4503 35.6626C62.2187 35.3151 61.987 35.0835 61.8712 34.736C61.2921 33.8095 60.713 32.883 60.0181 31.7248C63.4927 26.3972 67.083 20.9538 71.3682 16.4369C72.9897 14.8155 74.8428 13.5415 77.0433 12.9624C80.1704 12.0358 83.7607 11.92 86.8878 13.3098C89.0883 14.2364 90.9414 15.742 92.447 17.5951C95.8057 21.417 97.4271 26.7446 97.4271 31.8406C97.3113 39.3687 93.8368 45.9703 88.7408 49.2132Z" fill="#FF6666"/>
</svg>
